<?xml version="1.0" standalone="no"?>
<!DOCTYPE svg PUBLIC "-//W3C//DTD SVG 20010904//EN"
 "http://www.w3.org/TR/2001/REC-SVG-20010904/DTD/svg10.dtd">
<svg version="1.0" xmlns="http://www.w3.org/2000/svg"
 width="300.000000pt" height="300.000000pt" viewBox="0 0 300.000000 300.000000"
 preserveAspectRatio="xMidYMid meet">
<metadata>
Created by potrace 1.10, written by Peter Selinger 2001-2011
</metadata>
<g transform="translate(0.000000,300.000000) scale(0.100000,-0.100000)"
fill="#000000" stroke="none">
<path d="M1350 2455 c-207 -33 -419 -133 -566 -267 -306 -280 -419 -668 -330
-1132 6 -31 55 -185 65 -201 3 -5 6 -14 7 -20 1 -5 18 -39 38 -73 20 -35 36
-66 36 -68 0 -23 149 -195 231 -269 270 -240 671 -321 1018 -205 271 91 503
297 623 552 53 112 66 145 95 253 25 92 28 115 28 285 0 157 -4 201 -24 290
-12 58 -26 110 -30 115 -4 6 -18 37 -31 70 -82 209 -281 431 -487 545 -73 40
-229 98 -313 115 -105 22 -259 27 -360 10z m392 -53 c310 -83 558 -280 697
-552 89 -175 121 -314 121 -528 0 -396 -178 -743 -487 -948 -246 -165 -546
-211 -830 -128 -176 51 -302 124 -439 256 -222 213 -344 512 -344 844 0 259
69 475 215 668 155 207 367 338 646 401 93 21 319 14 421 -13z"/>
<path d="M1338 2385 c-214 -41 -427 -158 -569 -313 -266 -290 -343 -701 -208
-1114 70 -214 186 -377 368 -513 350 -263 818 -269 1161 -15 326 242 489 657
425 1084 -28 184 -96 337 -221 495 -140 177 -335 303 -560 362 -104 27 -291
34 -396 14z m422 -38 c181 -54 310 -130 434 -252 137 -136 235 -299 284 -473
25 -91 27 -110 26 -292 0 -181 -2 -202 -28 -295 -31 -114 -95 -255 -155 -343
-131 -193 -341 -345 -561 -404 -72 -19 -109 -23 -245 -22 -187 0 -263 17 -410
88 -280 135 -471 376 -557 704 -29 109 -31 128 -31 292 0 158 2 185 26 275
101 378 389 652 778 740 104 24 332 14 439 -18z"/>
<path d="M1357 2345 c-533 -101 -868 -550 -816 -1094 45 -473 328 -830 749
-942 128 -34 328 -32 462 3 298 81 543 301 657 593 64 163 84 281 78 465 -7
228 -49 366 -163 536 -182 274 -462 435 -784 449 -70 3 -131 0 -183 -10z m47
-63 c-7 -15 -14 -41 -14 -59 0 -27 -6 -35 -35 -49 -19 -9 -50 -34 -70 -55 -19
-21 -41 -39 -48 -39 -28 0 -227 -144 -227 -164 0 -12 -24 -32 -60 -51 -18 -9
-45 -31 -60 -47 -23 -25 -31 -28 -48 -19 -69 37 -172 -24 -172 -101 0 -49 45
-101 103 -120 37 -11 42 -17 45 -45 2 -18 7 -33 12 -33 13 0 23 -39 23 -90 0
-25 3 -49 6 -55 4 -5 8 -21 9 -34 1 -32 75 -184 101 -210 36 -36 43 -23 13 22
-45 65 -69 118 -92 198 -21 76 -28 145 -10 104 4 -11 15 -51 24 -88 18 -80 68
-186 102 -218 19 -18 24 -19 24 -6 0 9 -4 18 -9 21 -18 11 -71 126 -90 195
l-20 71 22 15 c12 8 25 15 29 15 4 0 18 11 31 24 22 22 25 33 23 93 -1 81 19
160 46 174 34 18 132 29 201 23 72 -7 82 -18 46 -50 -27 -24 -34 -44 -65 -169
-41 -168 -44 -184 -44 -216 0 -34 -26 -74 -116 -178 -104 -121 -134 -210 -98
-287 16 -34 16 -35 -12 -76 -50 -72 -30 -150 46 -180 33 -12 102 14 134 52 22
27 26 28 61 19 45 -13 91 -6 125 18 21 15 48 18 163 18 123 0 140 2 152 18 29
39 10 47 -94 42 -102 -6 -196 4 -196 20 -1 29 -27 53 -63 59 -42 6 -136 80
-147 115 -7 23 18 88 59 155 l30 50 13 -32 c7 -18 11 -44 9 -57 -3 -14 0 -25
5 -25 6 0 17 -16 25 -37 27 -64 90 -104 166 -105 34 0 66 -8 96 -24 52 -28
107 -31 178 -9 68 21 94 19 94 -4 0 -11 16 -41 36 -66 l36 -47 -31 -32 c-58
-59 -32 -158 52 -200 126 -61 218 104 112 201 l-26 24 26 30 c33 40 35 114 4
153 l-21 27 21 50 c18 41 20 56 12 86 -8 28 -7 43 4 65 8 15 22 41 30 56 8 16
17 49 21 73 4 24 17 55 29 69 13 14 32 41 42 60 15 26 28 36 57 42 51 11 90
40 110 82 15 31 15 39 2 69 -20 48 -71 77 -136 77 -49 0 -54 2 -96 48 -24 26
-54 67 -66 92 -23 48 -139 168 -185 194 -57 31 -132 66 -141 66 -5 0 -21 10
-35 23 -14 12 -37 32 -51 44 -21 17 -25 27 -20 50 3 17 -1 45 -10 66 -8 20
-12 38 -8 41 12 6 144 -20 211 -43 144 -50 270 -130 371 -238 200 -213 281
-428 275 -732 -3 -132 -22 -242 -56 -326 -7 -16 -13 -36 -15 -44 -4 -23 -65
-143 -99 -196 -73 -115 -231 -252 -369 -322 -198 -100 -458 -120 -675 -51
-191 60 -369 196 -487 370 -127 188 -187 406 -179 653 5 179 40 326 107 438
15 26 28 50 28 53 0 14 89 122 151 184 67 66 178 142 257 176 105 45 271 88
294 77 4 -2 0 -16 -8 -31z m155 2 c32 -41 28 -98 -8 -135 -33 -33 -56 -36 -88
-14 -25 18 -47 83 -37 111 23 65 96 86 133 38z m-137 -154 c27 -48 105 -58
147 -19 28 26 41 24 79 -11 58 -52 63 -80 65 -318 2 -196 -3 -251 -17 -205 -3
10 -10 68 -16 128 -20 204 -47 297 -92 314 -13 4 -62 11 -110 15 -84 6 -87 5
-106 -19 l-20 -25 -31 39 c-17 21 -31 43 -31 49 0 9 98 82 110 82 3 0 13 -13
22 -30z m369 -91 c47 -23 147 -104 185 -149 44 -52 77 -100 71 -106 -3 -3 -19
14 -35 38 -48 70 -157 165 -233 203 -68 35 -90 53 -46 39 12 -3 38 -15 58 -25z
m-526 11 c-3 -5 -12 -10 -19 -10 -20 0 -157 -93 -190 -129 -17 -17 -34 -31
-40 -31 -15 0 42 57 99 100 79 59 169 101 150 70z m31 -45 c4 -9 18 -22 32
-29 22 -12 30 -11 58 6 32 19 81 19 167 2 36 -7 65 -69 74 -157 6 -55 5 -59
-13 -54 -10 3 -35 8 -55 11 -20 4 -48 17 -63 31 -16 15 -43 26 -73 29 -85 10
-308 49 -321 56 -17 9 22 44 95 86 65 36 91 41 99 19z m631 -123 c40 -40 73
-81 73 -91 0 -10 -13 -35 -30 -56 -36 -45 -36 -53 -9 -99 14 -24 22 -60 26
-114 l5 -80 -39 -26 c-43 -29 -202 -88 -215 -80 -4 3 -8 18 -8 35 0 16 -4 29
-9 29 -5 0 -11 7 -14 14 -4 10 -1 13 7 10 11 -4 13 8 11 53 -1 36 3 65 11 79
11 16 14 70 14 238 l1 217 51 -28 c28 -15 84 -61 125 -101z m-693 -47 c83 -14
172 -25 198 -25 26 0 48 -4 48 -10 0 -14 -1 -14 -210 -14 -164 -1 -189 -3
-225 -21 -40 -20 -40 -21 -61 -118 -17 -81 -19 -100 -8 -115 19 -25 18 -27
-25 -55 l-39 -26 -20 22 c-38 40 -56 117 -28 117 8 0 26 14 40 31 31 37 34 87
7 120 -23 29 -15 49 32 78 31 19 90 38 127 40 8 0 82 -10 164 -24z m-384 -82
c28 -16 50 -51 50 -78 0 -23 -59 -65 -91 -65 -37 0 -85 24 -99 49 -41 77 58
143 140 94z m733 -9 c23 -4 37 -12 37 -21 0 -11 -6 -12 -22 -6 -13 4 -54 8
-93 8 -57 0 -79 -5 -119 -28 -27 -15 -53 -27 -58 -27 -17 0 3 20 35 35 18 9
24 13 14 10 -12 -3 -17 -1 -15 7 5 13 138 38 168 32 8 -2 32 -6 53 -10z m496
-20 c51 -43 56 -60 27 -95 -40 -47 -36 -93 13 -139 l39 -38 -18 -28 c-48 -79
-120 -116 -266 -139 -125 -20 -174 -33 -174 -46 0 -6 -4 -8 -9 -5 -5 4 -16 4
-24 0 -13 -4 -13 -9 -2 -32 21 -43 27 -70 17 -76 -5 -3 -15 16 -22 42 -7 26
-17 52 -22 59 -13 16 58 51 187 93 110 35 146 54 188 98 26 27 27 32 18 73 -6
24 -11 65 -11 92 0 46 -24 87 -51 87 -5 0 5 18 23 40 18 22 38 40 45 40 6 0
25 -12 42 -26z m-454 -40 c28 -13 35 -20 22 -22 -15 -3 -15 -6 5 -22 18 -15
21 -21 11 -31 -10 -10 -9 -17 9 -36 26 -28 18 -42 -8 -15 -40 40 -85 63 -135
69 -39 5 -47 8 -34 15 19 11 97 -5 132 -28 14 -9 24 -10 28 -4 12 19 -67 44
-140 44 -61 0 -80 -5 -135 -33 -36 -18 -75 -42 -87 -54 l-22 -20 12 32 c6 17
18 31 26 31 7 0 28 9 45 19 17 11 51 25 76 32 26 7 38 14 28 16 -14 4 -65 -14
-157 -54 -11 -5 -11 -2 -2 16 7 12 16 19 21 16 5 -3 24 2 42 11 85 45 192 52
263 18z m665 -53 c38 -28 38 -72 0 -104 -57 -48 -131 -45 -166 8 -24 37 -3 82
50 106 45 21 77 18 116 -10z m-738 -21 c49 -14 117 -66 140 -109 27 -48 14
-51 -32 -6 -39 38 -48 61 -13 34 15 -11 15 -10 -1 9 -20 23 -43 31 -30 10 5
-8 2 -9 -12 -3 -91 38 -136 43 -195 23 -49 -16 -105 -63 -131 -109 -12 -21
-25 -39 -30 -39 -12 0 -10 18 2 25 6 4 8 16 5 28 -2 12 -2 17 1 10 3 -7 21 6
45 32 47 51 107 75 186 75 30 0 68 -7 84 -16 17 -8 33 -13 36 -10 3 2 -10 13
-29 23 -23 12 -54 17 -103 17 -78 0 -119 -16 -172 -67 -18 -17 -36 -28 -39
-24 -9 8 48 57 99 84 47 25 126 30 189 13z m-14 -55 c92 -28 150 -99 157 -190
1 -24 6 -48 9 -54 4 -6 2 -11 -3 -11 -6 0 -11 7 -11 15 0 7 -6 18 -14 22 -7 4
-27 38 -45 75 -26 56 -38 70 -74 87 -54 26 -112 27 -153 2 -36 -22 -84 -81
-84 -103 0 -26 -42 -118 -51 -112 -5 3 -9 1 -9 -5 0 -5 -26 -54 -57 -108 -60
-104 -93 -180 -93 -215 0 -22 53 -77 124 -130 30 -21 47 -27 67 -23 25 6 27 4
31 -37 6 -53 -9 -68 -66 -67 -65 1 -78 10 -81 54 -2 29 -10 46 -35 68 -29 26
-37 28 -76 22 -50 -7 -64 8 -64 72 1 55 28 107 108 204 38 48 83 106 99 130
15 24 37 54 49 66 12 11 26 42 33 68 15 60 79 131 131 145 92 25 179 -20 220
-115 24 -57 44 -60 22 -3 -37 94 -121 144 -235 139 -43 -2 -135 -93 -148 -148
-6 -24 -15 -43 -19 -43 -10 0 7 64 25 100 18 34 54 66 101 90 48 24 75 25 142
5z m-5 -59 c59 -25 99 -91 122 -206 12 -59 -11 -21 -34 56 -11 40 -30 82 -41
95 -23 29 -26 18 -4 -16 17 -26 55 -166 48 -177 -3 -4 5 -41 16 -84 13 -48 17
-81 11 -87 -11 -11 -16 4 -31 103 -34 221 -48 257 -103 281 -15 6 -41 9 -58 5
-18 -3 -28 -2 -24 4 8 13 71 13 97 -1 11 -6 22 -8 25 -6 10 10 -42 30 -79 30
-71 0 -121 -55 -148 -165 -14 -54 -45 -108 -61 -108 -8 0 -6 6 4 18 17 19 41
76 57 139 18 72 84 132 148 133 12 0 37 -6 55 -14z m0 -58 c37 -25 58 -100 64
-231 4 -66 9 -104 14 -95 6 9 9 3 9 -19 0 -17 3 -38 6 -47 3 -9 1 -16 -5 -16
-6 0 -11 15 -12 33 l-1 32 -10 -38 c-7 -26 -15 -37 -27 -35 -10 2 -15 -3 -15
-14 1 -10 -4 -18 -11 -18 -8 0 -10 9 -7 26 l5 27 -22 -22 c-28 -28 -35 -23
-21 13 15 40 21 166 8 166 -6 0 -8 -9 -5 -20 3 -11 1 -23 -4 -26 -5 -3 -9 -14
-9 -24 0 -20 -47 -120 -57 -120 -3 0 -3 7 1 15 5 13 2 13 -19 -1 -13 -9 -29
-14 -36 -12 -6 2 7 12 29 23 32 16 43 29 57 67 11 32 15 61 11 86 -5 27 -4 33
3 22 8 -11 10 -5 10 25 -1 35 -2 37 -9 15 -6 -19 -8 -21 -9 -6 -2 30 -9 15
-16 -34 -4 -25 -11 -52 -16 -60 -12 -20 -11 -15 6 85 9 48 14 90 11 92 -5 5
-22 -78 -31 -154 -6 -42 -12 -57 -33 -72 -33 -22 -82 -35 -82 -21 0 5 11 10
24 10 35 0 65 30 71 70 5 32 5 33 -5 10 -18 -42 -51 -70 -82 -70 -15 0 -28 4
-28 9 0 5 8 7 18 4 29 -7 70 34 86 85 10 32 15 39 15 23 1 -13 4 -22 7 -18 4
3 3 23 -1 44 l-7 38 -13 -42 c-24 -79 -87 -135 -118 -104 -8 8 -3 11 15 11 41
0 83 59 97 133 18 94 20 98 58 113 32 14 37 14 54 -2 31 -28 42 -90 35 -192
-3 -50 -2 -107 1 -125 7 -31 7 -31 14 -7 4 14 7 34 7 45 1 20 1 20 -9 0 -7
-15 -8 -10 -3 19 9 61 6 172 -6 216 -13 47 -48 75 -82 65 -31 -10 -68 -45 -68
-65 0 -42 -34 -138 -57 -162 -39 -40 -51 -34 -14 7 16 19 35 53 41 75 5 22 15
58 21 80 7 29 19 47 42 60 101 62 154 -37 145 -271 -2 -54 0 -99 4 -99 14 0 9
242 -6 305 -21 89 -73 118 -146 80 -36 -18 -43 -32 -64 -114 -16 -63 -56 -131
-77 -131 -6 0 0 13 14 30 23 27 46 85 61 152 4 15 19 42 35 61 25 28 36 32 73
32 25 0 56 -8 71 -17z m-273 -48 c0 -15 -30 -73 -35 -68 -7 7 18 78 27 78 4 0
8 -5 8 -10z m826 -108 c-22 -61 -65 -142 -77 -142 -5 0 1 19 14 43 14 23 33
63 42 90 10 26 21 47 26 47 4 0 2 -17 -5 -38z m-63 -44 c-20 -55 -42 -77 -79
-84 -16 -2 -38 -16 -49 -32 -36 -50 -95 -99 -153 -130 -72 -37 -104 -45 -126
-29 -16 12 -15 16 14 52 47 59 78 115 85 158 4 21 15 41 24 46 9 5 66 17 126
26 61 10 119 21 130 26 42 16 46 11 28 -33z m-562 -106 c-12 -45 -72 -102
-105 -102 -19 1 -18 2 5 15 15 8 29 21 33 30 3 8 11 15 19 15 14 0 46 59 48
88 0 9 3 12 5 5 3 -6 0 -29 -5 -51z m559 -56 c0 -17 -8 -44 -18 -61 -16 -26
-23 -29 -63 -26 -37 2 -52 -3 -78 -24 -38 -33 -192 -78 -239 -71 -33 5 -142
80 -142 97 0 17 42 -1 82 -35 54 -46 101 -48 184 -6 78 38 174 124 174 154 0
22 2 23 50 13 47 -9 50 -11 50 -41z m-520 2 c-15 -54 -52 -103 -80 -106 -24
-3 -24 -2 5 16 20 12 39 39 54 76 27 62 36 69 21 14z m-164 -69 c3 -6 24 -9
45 -7 22 2 39 0 39 -4 0 -5 -8 -9 -17 -9 -63 -5 -72 -4 -82 13 -6 10 -7 18 -2
18 6 0 13 -5 17 -11z m74 -50 c14 -2 30 0 36 3 14 9 54 -2 54 -14 0 -6 -6 -8
-14 -5 -8 3 -16 1 -18 -5 -6 -16 -72 -1 -100 23 -19 17 -20 18 -3 11 11 -6 31
-11 45 -13z m586 -33 c41 -41 47 -93 14 -126 -30 -30 -67 -25 -106 14 -27 27
-34 42 -34 72 0 78 67 99 126 40z m-868 -132 c26 -18 29 -61 7 -104 -45 -87
-155 -78 -155 13 0 21 12 41 39 68 42 42 72 49 109 23z m425 -52 c77 3 104 1
97 -6 -7 -7 -55 -11 -118 -11 -108 0 -162 8 -162 24 0 5 16 5 38 -1 20 -6 85
-8 145 -6z m438 -28 c56 -29 75 -129 29 -154 -55 -29 -134 11 -146 75 -13 73
49 115 117 79z"/>
<path d="M1510 1680 c19 -4 53 -10 75 -14 l40 -5 -30 14 c-16 8 -50 14 -75 14
l-45 -1 35 -8z"/>
<path d="M1430 1370 c-21 -21 -25 -47 -13 -90 6 -22 8 -20 17 20 11 44 35 67
37 33 0 -16 1 -16 9 2 11 28 -3 39 -31 24 -22 -11 -23 -11 -10 5 19 23 56 17
57 -9 1 -11 2 -49 4 -85 l3 -65 8 69 c9 84 -1 116 -36 116 -14 0 -34 -9 -45
-20z"/>
<path d="M2830 91 c0 -11 -8 -28 -17 -37 -17 -17 -17 -18 0 -11 10 4 22 7 26
7 5 0 6 11 4 25 -5 24 -5 24 58 20 34 -3 60 -3 57 0 -3 3 -33 8 -67 10 -55 4
-61 3 -61 -14z"/>
</g>
</svg>
